<?xml version="1.0" encoding="utf-8"?>
<!-- Generator: Adobe Illustrator 22.0.1, SVG Export Plug-In . SVG Version: 6.00 Build 0)  -->
<svg version="1.1" id="레이어_1" xmlns="http://www.w3.org/2000/svg" xmlns:xlink="http://www.w3.org/1999/xlink" x="0px"
	 y="0px" viewBox="0 0 20 20" style="enable-background:new 0 0 20 20;" xml:space="preserve">
<style type="text/css">
	.st0{fill:#0016A2;}
	.st1{fill:#FFFFFF;}
</style>
<g>
	<path class="st0" d="M14.2,2.2c-0.4-0.6-0.9-1.1-1.6-1.4C11.9,0.4,11,0.2,10,0.2c-0.9,0-1.7,0.2-2.5,0.6C6.9,1.2,6.3,1.7,5.9,2.4
		C5.5,3,5.3,3.8,5.3,4.6h3c0-0.5,0.2-0.9,0.5-1.2c0.3-0.3,0.7-0.5,1.3-0.5c0.5,0,1,0.1,1.3,0.4c0.3,0.2,0.4,0.6,0.4,1
		c0,0.4-0.1,0.7-0.4,1c-0.2,0.3-0.6,0.7-1.2,1.1c-0.6,0.5-1.1,1-1.3,1.5C8.6,8.5,8.5,9.2,8.5,10h2.8c0-0.5,0.1-0.9,0.4-1.3
		c0.2-0.4,0.7-0.8,1.3-1.3c1.2-0.9,1.7-1.9,1.7-3.2C14.7,3.5,14.5,2.8,14.2,2.2z"/>
</g>
<path class="st0" d="M10,11c-1.7,0-3,1.3-3,3s3,6,3,6s3-4.3,3-6S11.7,11,10,11z M10,16c-1.1,0-2-0.9-2-2c0-1.1,0.9-2,2-2s2,0.9,2,2
	C12,15.1,11.1,16,10,16z"/>
<circle class="st1" cx="10" cy="14" r="2"/>
</svg>
